<svg id="Layer_1" xmlns="http://www.w3.org/2000/svg" width="255" height="143.21" viewBox="0 0 255 143.21">
  <path fill="#DCEBF2" d="M1 1.21h253v142H1z"/>
  <path d="M197.121 142.372l.341-.162h-.829z"/>
  <path fill="#EBE9D9" stroke="#C3C4B7" stroke-linecap="round" stroke-linejoin="round" d="M155.756 51.671l.008.984c.003.134.005.258.008.388-.006-.433-.011-.883-.016-1.372zM135.568 52.636c17.12.009 14.434.01 19.664.019-5.229-.009-2.541-.01-19.664-.019zM127.033 72.71h.989-.989zM155.886 59.872c-.001.932-.02 1.788-.062 2.729.049-1.012.065-1.845.062-2.729zM135.797 63.487c-.488-.249-.98-.505-1.404-.741.569.317 1.016.548 1.404.741zM195.318 127.208l-.316.521c.09-.147.192-.316.316-.521zM171.702 101.91c-.41.185-.614.271-.754.339l.754-.339zM197.462 142.21h.005l-.003-.001zM205.646 141.56l-.591-.6-.99.099c-1.294-1.196-1.541-1.472-2.684-2.315l-.954.074-.807-.575.077 1.133 1.074 1.32 1.457.607.619-.018.327.928.253.497h2.381l-.037-.3-.125-.85zM155.821 62.671c-.002.044-.004.089-.007.134.003-.045.005-.089.007-.134zM169.507 49.771l.384.349.59-1.314-.644.029z"/>
  <path fill="#EBE9D9" stroke="#C3C4B7" stroke-linecap="round" stroke-linejoin="round" d="M162.793 45.567c-.29 1.231-.104.768-.94 2.344l-.891.644-.443 1.422-1.613 1.841-1.9-1.249-.931.325-.318.777c.005.489.01.939.016 1.373.065 3.175.117 5.131.115 6.828.002.884-.014 1.717-.062 2.729-.001.023-.002.047-.003.071-.002.044-.004.088-.007.134-.113 2.383-.378 5.37-.906 11.478l2.204-.088.985.251.429-.163-.154-1.014 2.038-1.919.064-.854 2.289-.495c1.202-1.65.842-1.048 1.623-2.713l-.024-.413.976-1.139.056-1.338.471-.809-.27-.54.762-.857-.374-1.26-.345-.138-.236-.975c.197-2.233.031-1.456.779-3.593l-.586-.939.772-2.17.069-1.232c.772-1.181.541-.718 1.309-2.658.088-1.008.133-.737-.192-2.884l-.965.374-2.121-.497.871-.6.025-.487-2.077-.03-.495.463zM223.858 140.663c-3.043-3.286-4.617-5.277-5.759-9.625l-.512-.784-.297.035.089 1.303-3.032 1.006-.999-.783-.605.265-1.29-.201-.187-.89-1.146-.66-.504-.847-.698.441-2.898-1.3-.349.085-1.983 1.299-.522.064c-1.821-.664-5.987-2.059-7.474-3.019l-.374.155c-.124.205-.226.374-.316.521l-.471.777-.009-.003c-.151.229-.245.346-.493.681l.582.571-.522.347-1.536-.082-.344.682c1.426.456.875.212 2.727 1.211l.03 1.123.35.649-1.995 1.426.385.532-.621.399-.345.734c.237 1.588.051.967.926 3.011l1.576 2.209 1.392.713H203.43l-.253-.497-.327-.803-.619-.045-1.457-.639-1.074-1.336-.077-1.141.807.571.954-.076c1.143.844 1.39 1.118 2.684 2.314l.99-.099.591.599.127.851.037.3h19.622c-.239-1-.488-.901-.807-1.362l-.77-.682zM229.381 8.553l-1.123-1.073.025-.65c-2.265-.699-1.6-.551-3.352-.747l-.966 1.181.02.935 1.172 1.906-.615.481-1.648-.222 1.037 1.112 1.931.359.793-.083 2.696-1.093.605-.605-.847-.773.272-.728zM239.556.71c-1.837 0-1.364.154-4.869.14l-.507.285c1.133.822 1.57.846 3.186 1.486l.62.776 1.938-.285.787.229.768-.116 1.311.348.245.752.927.074 1.054-1.295 1.052 1.314 1.251.468c.542.054 4.124-.045 5.359-.025l.478-.364-.752-.851.605-.312.984 1.024-.459.674.967.896V.71h-14.945zM208.792 3.226l.27.493.779.306.151.935-1.575.29-.654-.29c-.531.344-3.771 1.663-4.773 2.111l.713.413.94-.093 1.565-.906 1.387-.314.699.403-.531 1.329.614.183 1.807-1.285 1.827-.63 1.126.256.542-.384-.099-1.191.857-1.285c2.066.006 1.279.065 3.484-.271l.517-.575.575.654 1.143.029.739-.521.693-.975 1.354-.236.906-1.171.011.21H210.14l-.922 1.03-.426 1.485zM244.019 35.142l-.196.67-.679-.119-.374.512 1.471.089.369-.256 1.104-.019.195-.7-1.056.054z"/>
  <path fill="#EBE9D9" stroke="#C3C4B7" stroke-linecap="round" stroke-linejoin="round" d="M157.112 74.195l-2.204.088c.537-6.21.795-9.287.906-11.478.002-.044.005-.09.007-.134.001-.024.002-.047.003-.071.042-.941.061-1.797.062-2.729-.005-1.61-.07-3.385-.115-6.801-.002-.13-.005-.361-.008-.361h-.532c-5.229 0-2.544-.037-19.664-.046l-.319.144-.014 6.185-4.92-.034.739.728.837.009 1.335 1.816.561.108.605 1.127c.424.236.916.492 1.404.741.943.47 1.497.69 2.316 1.192l1.137 1.737-.163.71.71.551.463-.108.756.67.911.128-.044.807-.68.998.302.972-.597 1.349c-6.854.016-4.177.217-12.886.217h-.989l-.313.06-5.077 8.425.017.542 1.45 1.815-.333.618-.566.239-.006 1.069-.404.974.325 1.258-.521 1.488-.423.27c5.071 3.593 6.926 6.669 14.969 7.15 4.134-.358 5.054.321 9.158 2.059l-.233-.757.167-.705c.953-.979.649-.724 2.455-2.071l.498-.188.826.325.585-1.334.803-.587 1.2-.28-.211-.704-.545-.451.324-.946 1.806-.33.527.291c.518-.971.261-.622 1.3-1.771l.954-.094.179-1.434-.937-1.422-.039-.369.698-.955-.039-1.013.704-.559 1.53-.55c1.915-1.447 5.986-4.307 7.36-6.02l1.073-.571c-1.648-1.163-1.159-.872-2.546-1.502l-1.994 1.181-1.806-1.186-.886-.009-.536-.385-.429.163-.983-.249z"/>
  <path fill="#EBE9D9" stroke="#C3C4B7" stroke-linecap="round" stroke-linejoin="round" d="M155.824 62.6c-.001.024-.002.047-.003.071.001-.024.002-.047.003-.071zM155.814 62.805c-.111 2.191-.37 5.268-.906 11.478.529-6.108.793-9.095.906-11.478zM155.771 53.043c.044 3.416.11 5.218.115 6.828.003-1.696-.05-3.652-.115-6.828zM157.86 82.774l-1.53.55-.704.559.039 1.013-.698.955.039.369.937 1.422-.179 1.434-.954.094c-1.039 1.149-.782.801-1.3 1.771 1.772.432 1.161.245 3.751 1.175l.778 1.423.855.118.474 1.054h1.116l-.082.429.693.398.569-.052 1.553.43.082 1.233 2.27-.465.551-.362.016-.615 1.654.138.713 1.002 1.103.133 1.033-.403 1.35 1.295c-.572 1.497-.394.895-.866 3.012l.724.385-.144.643-.754.339c-.045.022-.085.043-.122.064l1.072.528 1.104-.72.836.77.74-.05.388-.688.522.103-1.251 1.405.855 1.091.184.882 1.412 1.126-.23.336 2.568-.159.424.169 1.104-1.006.422-1.909 1.064-.59.644.314.636-.565-.415-.924.164-.491-.556-2.421.088-1.022 2.516-.413 1.471.374 1.083-.316.335-.776c1.334-1.625.922-1.192 2.097-2.236l.855-.121-.088.663 1.266 1.001.604.033.413.641 1.024.176-.157-.635.536-.822 1.187-.817.734-.196.19-.481.886-.439.429-.875.812-.793 1.467-.324.366-.319-.542-.773.61-.892.157-1.043.571.384.639-.502-.038-.905.35-.804 1.098-.855.966-.138.536.265.79 1.473 1.932.162.501.463 1.614-.625.567.084.586-.984.589.462c2.166-.61 1.389-.453 3.516-.719 1.368-.689 4.223-2.048 5.368-2.854l1.439.536 1.472-.151-1.378-.542-.837-1.147-.316-.936-.58-.418-2.413-.33-.118.448-1.514.413-.061-.748c-1.654-1.245-1.393-1.073-2.465-1.525l.074.777 1.859.921-1.123.256-.412-.567-1.39-.698-.462-.787 1.112-1.181.885.196-2.479-2.165-1.428-1.144-1.901-.206-.146.57-.816-.097-1.23.146-.188-1.146-1.993-.605-1.63-.648-.853.019-2.003 1.146-2.623.163-1.345-.424-1.062-.776-1.235-.316-1.004.237-1.029.93-1.604.055-.779.245-1.467 1.046-.855.057-.625-.313-2.564.177-.797-.206-1.211.481c-1.885.024-3.432-.474-5.228-.975l-1.153.66-.693-.079-1.205-1.078-1.178-.319-2.091.619-.286.552-1.093.325-.974 1.062-1.146-.334-1.073.571c-1.376 1.703-5.448 4.562-7.363 6.009zM126.852 42.634l.896.128.44-.591 1.08-.246-.35-.285zM179.893 23.112l-.128 1.171.266.807.768-.595.925-1.393.531-.452.536-1.014-2.105.226z"/>
  <path fill="#EBE9D9" stroke="#C3C4B7" stroke-linecap="round" stroke-linejoin="round" d="M9.723 51.504l1.004-.743.718-.093 2.531 1.13.728 1.104.827.586.312.812.55.368 1.107.237.626.644-.173.346c3.2 1.17 2.491.752 5.021 3.08 4.169 1.436 1.694.593 11.388 3.87l2.807 2.018 1.526.536c2.608-.074 5.531.916 8.393 1.742l.891-.306c1.087 1.291.59.789 2.186 2.192l.156.413c1.838.694 2.589.782 4.983 1.294l.433.497 3.5 2.092 2.722.123.792.268c2.447.112 2.132.088 3.348.462l1.55 1.087 1.023.275.966.566c2.214.313 1.516.132 3.238.828l.784-.021.614-.394 2.182.138c2.416-1.541 2.929-1.574 4.887-2.105l.513-.325 1.033-.139 1.016-.513 1.543-.206 2.254-2.056.941-.325c.848.033.605.092 2.84-.277l-.059-.394-1.824-.095.341-.51h.652l.603-.923.776-.454.504.347.491 1.123 1.22-.796.822.409-.068.5-1.397.579.123.393 2.929.1 4.71 1.75-.419-.502-1.944-.984-.699.251-.595-.251-.773-.797.573-.596.629.557.931.384 1.082-.197.129.473.822.605 1.623.407.493.725-1.004.162c7.244 4.342 10.036 7.965 12.551 9.437l-.01.419c2.344 2.564 6.358 6.491 6.487 6.64l.423-.271.521-1.488-.325-1.259.404-.976.006-1.072.566-.245.333-.631-1.45-1.84-.017-.592 5.077-8.326c.412-.078 13.782-.276 14.188-.277l.597-1.25-.302-1.021.68-1.023.044-.819-.911-.134-.756-.673-.463.107-.71-.551.163-.71-1.137-1.738c-.1-.061-3.049-1.56-3.721-1.934l-.605-1.127-.561-.108-1.335-1.816-.837-.01-.739-.729 4.92.03.014-6.191.319-.13c9.829.005 20.187.046 20.195.046l-.008-1.012.318-.791.931-.332 1.9 1.246 1.613-1.842.443-1.423.891-.644c.837-1.576.65-1.113.94-2.344l.493-.463 2.077.03.231-.11c.871-1.524 1.687-3.158 2.771-4.32l.354.994.025 1.088-.842 1.737-.006.419 1.601.625 1.014 2.038.285-.855.537-.769c.442-1.797.319-1.09.536-3.096l.688-.966c.498-1.693.354-1.049.624-2.855.725-1.432.567-.979 1.235-3.46l-.795.118-.809 1.083-.545-.236.358-1.477.945-.62.512.246 1.038-.965.113-.748-1.033.118-.553-.227-1.142.172-.727-.541-.041-.94 1.191-.275.316-.709 1.161-.659.286-.616c0-2.44-.056-1.836.305-3.45l.727-.856c.975-2.343 2.146-3.104 3.495-3.966l2.151-2.66c.715-2.277.369-1.49 1.502-3.484l-.827-.453-.144-2.578-1.087-.143-.817-1.35-.512-.408-1.015-.196-2.136.885.762.148 1.159-.453.261.552-.404.521-.807.337-2.644-.271-.316-.365c-1.565-.284-.954-.256-3.09-.122l.088-.474c-2.638-.659-1.723-.496-4.025-.718l-1.724.669-1.851-.206-1.762.462-1.094.848c-4.184 1.082-12.816 2.185-13.658 2.461l-.686.468c-1.101.325-.787.088-3.923 1.875l-.309.359c-1.202 3.494-.896 2.377-1.458 5.252.197 1.575-.009 3.258-.077 5.257l.333.61-.118 1.028c-.625.654-1.279 1.028-2.092 1.581l-.506 1.062-.229 3.51-.815 1.048-.601.275-.887 1.073c-1.868.995-1.455.72-2.534 1.654-1.615.684-1.015.379-3.023 1.536l.724 1.226.72-.109.413.507-.217 1.119-.537.713-1.914.689-.452.708c-1.9-.02-1.186.05-3.194-.314l-.547-.686-1.266-.014-.044-.857 1.013.231.429-.383-.91-.709c-5.168-.487-5.465.808-8.211.772-1.083 1.191-.66.807-1.959 1.767-1.674.404-5.326.03-8.122.562l-.143.803-1.019-.113-.886.351-.05.481-1.245.271.191-.562c-4.646 1.581-3.219 1.206-6.792 1.832l-1.275-.513-.531-1.078-1.004-1.009-.575-1.22-.435-.454-2.18-.358-.547-.641-1.761-1.088c-3.88.025-2.62.148-5.828-.546l-1.39.458-.569-1.861-.435-.64-.393-1.349-.719-.079-.531-.561-.484-1.358-.284.117-1.358-1.004-.473-1.402.06-.487-.502-.616c-.586-2.672-.424-2.092-1.079-3.74-.088-.099-1.244-1.742-5.261-6.099l-.167-.438c-1.167-.818-1.786-1.143-2.889-3.264l.014-.808c-3.184-5.562-.433-.862-3.357-6.649l.08-.901-.985-.227-.895-1.524c-.655-2.461-.558-1.974-.699-3.554l.807.758.256 1.015c1.783 2.052 1.368 1.649 2.757 2.707l.049.561-1.095.748.454 1.078.375.006.561-.857.354-1.614-.285-.474c-2.647-1.915-2.416-1.585-4.697-5.552l-.146-1.777c-.485-1.202-.368-.79-.512-1.807L58.586.71H.5v47.812l3.034 1.284c1.497.187 3.445.422 6.189 1.698z"/>
  <path fill="#EBE9D9" stroke="#C3C4B7" stroke-linecap="round" stroke-linejoin="round" d="M128.022 72.312c8.709-.007 6.033-.002 12.886-.019-6.727.011-4.093.012-12.886.019zM138.113 64.68c-.819-.502-1.373-.723-2.316-1.192 1.008.514 1.997.996 2.316 1.192zM220.436 84.01c-1.146.807-4 2.165-5.368 2.854-2.127.266-1.35.108-3.516.719l-.589-.462-.586.984-.567-.084-1.614.625-.501-.463-1.932-.162-.79-1.473-.536-.265-.966.138-1.098.855-.35.804.038.905-.639.502-.571-.384-.157 1.043-.61.892.542.773-.366.319-1.467.324-.812.793-.429.875-.886.439-.19.481-.734.196-1.187.817-.536.822.157.635-1.024-.176-.413-.641-.604-.033-1.266-1.001.088-.663-.855.121c-1.175 1.044-.763.611-2.097 2.236l-.335.776-1.083.316-1.471-.374-2.516.413-.088 1.022.556 2.421-.164.491.415.924-.636.565-.644-.314-1.064.59-.422 1.909-1.104 1.006-.424-.169-2.568.159-1.36.67-.363-.682-.896-.787-.402-.053-.935.84-.207.725.438.515c4.504 3.033.802 1.007 5.872 4.643l.57.808c.789.487 2.885 1.712 3.466 2.329l.816 1.783.664.664.459.925.531.458.512.936 1.345 1.007.446.656 1.034.448c1.772 1.896 1.594 1.222 2.796 2.569l.748.367 1.197 1.33.398.904.935.353c.106-.162.243-.383.48-.774l.316-.521.374-.155c1.486.96 5.652 2.354 7.474 3.019l.522-.064 1.983-1.299.349-.085 2.898 1.3.698-.441.504.847 1.146.66.187.89 1.29.201.605-.265.999.783 3.032-1.006-.089-1.303.297-.035-.998-.635c-1.147-2.171-1.09-1.512-1.09-3.283v-1.137l.613-.783.27-1.274 1.159-.61-.032-.633-.53-2.054-.962.413-.572-.649.854-.858-.088-1.083.609-.066c.65-2.743.606-2.443 1.072-3.368l-1.014.138c-.151-1.161-.039-.752-.668-2.372l1.054-.271.943-.695-.094-.699-.542-1.041.331-.347.803.233-.212 2.319-.674.226-.123 1.091.354.682 1.239.148.073-.809-.619-1.222c0-.96.241-2.56.379-3.632-.778-4.815-1.221-4.558.856-11.873.757-.856 1.83-2.023 2.688-4.016l-.006-.828c-.562-1.599-.457-1.18-1.206-4.33l-.429.448-.556-.396-.306-.688.503-.625.688-.312.222.744 1.216-1.594.552-.118-1.472.151-1.435-.532z"/>
  <path fill="#EBE9D9" stroke="#C3C4B7" stroke-linecap="round" stroke-linejoin="round" d="M194.531 128.507l.471-.777c-.237.391-.374.612-.48.774l.009.003zM170.948 102.249c.14-.068.344-.154.754-.339l.144-.643-.724-.385c.473-2.117.294-1.515.866-3.012l-1.35-1.295-1.033.403-1.103-.133-.713-1.003-1.654-.139-.016.614-.551.36-2.27.462-.082-1.24-1.553-.443-.569.025-.693-.345.082-.429h-1.116l-.474-1.054-.855-.064-.778-1.45c-2.59-.93-1.979-.756-3.751-1.188l-.527-.298-1.806.327-.324.944.545.451.211.704-1.2.28-.803.587-.585 1.334-.826-.325-.498.188c-1.806 1.348-1.502 1.093-2.455 2.071l-.167.705.233.757c1.94.891 1.302.556 2.871 1.485l.324.79 1.439-.092 1.713.459c1.954-.018 1.244-.073 3.085.248 5.396 2.904 5.607 2.622 8.117 3.084l.654-.274.896.585.575-.265 1.453.385c1.938-.105 1.24-.109 3.139.018l.177-.448 1.282-.759.072-.441-.92-.678c.382-.281.496-.377.64-.461l-.01-.005.134-.058z"/>
  <path fill="#EBE9D9" stroke="#C3C4B7" stroke-linecap="round" stroke-linejoin="round" d="M170.816 102.309l.01.005c.037-.021.077-.042.122-.064l-.132.059z"/>
  <text transform="translate(163.52 86.542)" fill="#666" font-family="'Gotham A', 'Gotham B', Arial, sans-serif" font-size="7">
    Honduras
  </text>
  <text transform="translate(186.2 110.153)" fill="#666" font-family="'Gotham A', 'Gotham B', Arial, sans-serif" font-size="7">
    Nicaragua
  </text>
  <text transform="translate(116.28 82.042)" fill="#666" font-family="'Gotham A', 'Gotham B', Arial, sans-serif" font-size="7">
    Guatemala
  </text>
  <text transform="translate(157.39 63.77)" fill="#666" font-family="'Gotham A', 'Gotham B', Arial, sans-serif" font-size="7">
    Belize
  </text>
  <text transform="translate(126.728 116.21)" fill="#666" font-family="'Gotham A', 'Gotham B', Arial, sans-serif" font-size="7">
    El Salvador
  </text>
  <path fill="none" stroke="#666" stroke-linecap="round" stroke-linejoin="round" stroke-miterlimit="10" stroke-dasharray="0,2" d="M164.5 100.21v9"/>
  <g>
    <text transform="translate(26.575 120.577)" fill="#231F20" font-family="'Gotham A', 'Gotham B', Arial, sans-serif" font-size="6">
      250 miles
    </text>
    <path fill="none" stroke="#231F20" stroke-width="2" d="M22.618 112.909H61.05"/>
    <text transform="translate(39.345 102.314)" fill="#231F20" font-family="'GothamSSm-Medium'" font-size="6">
      N
    </text>
    <path fill="#231F20" stroke="#231F20" stroke-width=".25" d="M43.304 110.153h-2.94l1.47-6.64z"/>
  </g>
  <path fill="none" stroke="gray" stroke-miterlimit="10" d="M.5.71h254v142H.5z"/>
  <text transform="translate(37.353 49.305)" fill="#666" font-family="'Gotham A', 'Gotham B', Arial, sans-serif" font-size="7">
    Mexico
  </text>
  <text transform="translate(88.395 21.636)">
    <tspan x="0" y="0" fill="#7F91A1" font-family="'GothamSSm-BookItalic'" font-size="7">Gulf of </tspan><tspan x="0" y="9.36" fill="#7F91A1" font-family="'GothamSSm-BookItalic'" font-size="7">Mexico</tspan>
  </text>
</svg>
